<svg width="36" height="141" viewBox="0 0 36 141" fill="none" xmlns="http://www.w3.org/2000/svg">
<g filter="url(#filter0_d)">
<path d="M27.4962 25.3792C27.081 26.398 26.5681 27.3695 25.9654 28.2787C25.1602 29.4893 24.499 30.3258 23.9923 30.7915C23.2051 31.5522 22.3595 31.9437 21.4554 31.9658C20.8076 31.9658 20.025 31.7716 19.1134 31.377C18.1988 30.984 17.3592 30.7915 16.59 30.7915C15.7848 30.7915 14.9212 30.984 13.9961 31.377C13.0725 31.7716 12.3259 31.9784 11.7546 31.9973C10.8895 32.0368 10.0244 31.6359 9.16224 30.7915C8.61198 30.2864 7.92378 29.4183 7.09764 28.1903C6.21303 26.8818 5.48585 25.3586 4.9161 23.6271C4.30587 21.7536 4 19.9416 4 18.1864C4 16.1771 4.41232 14.4425 5.23846 12.9903C5.86331 11.8499 6.75662 10.8981 7.83232 10.2266C8.89306 9.55682 10.104 9.19619 11.3408 9.18169C12.0305 9.18169 12.9346 9.40582 14.0546 9.84777C15.1746 10.2897 15.8943 10.5138 16.2077 10.5138C16.4446 10.5138 17.2407 10.2503 18.5961 9.72781C19.8751 9.24324 20.9546 9.04279 21.8392 9.12171C24.2381 9.32532 26.0389 10.3197 27.2368 12.1128C25.0928 13.4812 24.0327 15.3958 24.0537 17.8534C24.0717 19.768 24.7329 21.3606 26.0284 22.6249C26.6011 23.2018 27.2693 23.6635 28 23.987C27.8411 24.4716 27.6731 24.934 27.4962 25.3792ZM21.9981 2.60137C21.9981 4.10084 21.4764 5.50245 20.4403 6.79831C19.1869 8.33882 17.6725 9.23062 16.0307 9.09014C16.0093 8.90158 15.9987 8.71182 15.9993 8.52192C15.9993 7.08085 16.593 5.54033 17.653 4.2792C18.1808 3.64153 18.8525 3.10961 19.6666 2.6866C20.4793 2.26991 21.247 2.03946 21.9696 2C21.9891 2.20203 21.9981 2.40249 21.9981 2.60137Z" fill="white"/>
</g>
<g filter="url(#filter1_d)">
<path d="M9.80854 76.9348C9.80854 77.6921 10.4553 78.3103 11.2511 78.3103H12.9002V82.207C12.9002 83.1941 13.7299 84 14.7491 84C15.7718 84 16.5981 83.1974 16.5981 82.207V78.3071H19.4764V82.2038C19.4764 83.1909 20.3061 83.9968 21.3253 83.9968C22.348 83.9968 23.1743 83.1941 23.1743 82.2038V78.3071H24.8234C25.6192 78.3071 26.2659 77.6889 26.2659 76.9316V64.1411H9.80854V76.9348ZM21.901 57.5128L23.4215 55.4091C23.5095 55.2861 23.4892 55.121 23.3707 55.0401C23.2521 54.9625 23.0828 55.0013 22.9948 55.1243L21.4168 57.3121C20.3772 56.9205 19.2191 56.7037 18.0034 56.7037C16.7877 56.7037 15.6296 56.9205 14.59 57.3121L13.012 55.1275C12.9239 55.0045 12.7546 54.9625 12.6361 55.0434C12.5176 55.121 12.4973 55.2829 12.5853 55.4123L14.1058 57.516C11.6879 58.5905 9.99479 60.6263 9.77807 63.0051H26.2355C26.012 60.623 24.3154 58.5873 21.901 57.5128ZM14.529 60.8302C14.3489 60.8302 14.1728 60.7791 14.023 60.6834C13.8732 60.5878 13.7564 60.4518 13.6875 60.2927C13.6185 60.1336 13.6005 59.9586 13.6356 59.7897C13.6708 59.6208 13.7575 59.4657 13.8849 59.3439C14.0123 59.2222 14.1746 59.1393 14.3513 59.1057C14.528 59.0721 14.7112 59.0893 14.8776 59.1552C15.0441 59.2211 15.1863 59.3327 15.2864 59.4759C15.3865 59.619 15.44 59.7874 15.44 59.9596C15.4393 60.1903 15.3432 60.4114 15.1725 60.5745C15.0018 60.7376 14.7704 60.8296 14.529 60.8302ZM21.5861 60.8302C21.4059 60.8302 21.2298 60.7791 21.08 60.6834C20.9302 60.5878 20.8135 60.4518 20.7445 60.2927C20.6756 60.1336 20.6575 59.9586 20.6927 59.7897C20.7278 59.6208 20.8146 59.4657 20.942 59.3439C21.0694 59.2222 21.2317 59.1393 21.4084 59.1057C21.5851 59.0721 21.7682 59.0893 21.9347 59.1552C22.1011 59.2211 22.2434 59.3327 22.3435 59.4759C22.4436 59.619 22.497 59.7874 22.497 59.9596C22.4964 60.1903 22.4002 60.4114 22.2295 60.5745C22.0588 60.7376 21.8275 60.8296 21.5861 60.8302ZM29.1511 64.0893C28.1284 64.0893 27.3022 64.8919 27.3022 65.8823V72.886C27.3022 73.8731 28.1318 74.679 29.1511 74.679C30.1737 74.679 31 73.8763 31 72.886V65.879C31.0034 64.8887 30.1771 64.0893 29.1511 64.0893ZM6.84892 64.0893C5.82626 64.0893 5 64.8919 5 65.8823V72.886C5 73.8731 5.82964 74.679 6.84892 74.679C7.87158 74.679 8.69784 73.8763 8.69784 72.886V65.879C8.69784 64.8887 7.86819 64.0893 6.84892 64.0893Z" fill="white"/>
</g>
<g filter="url(#filter2_d)">
<path d="M18.3867 109.309V119.846H32V107L18.3867 109.309ZM18.3867 132.731L32 135V122.162H18.3867V132.731ZM4 119.842H15.5072V109.692L4 111.643V119.842ZM4 130.434L15.5072 132.352V122.162H4V130.434Z" fill="white"/>
</g>
<defs>
<filter id="filter0_d" x="0" y="0" width="32" height="38" filterUnits="userSpaceOnUse" color-interpolation-filters="sRGB">
<feFlood flood-opacity="0" result="BackgroundImageFix"/>
<feColorMatrix in="SourceAlpha" type="matrix" values="0 0 0 0 0 0 0 0 0 0 0 0 0 0 0 0 0 0 127 0"/>
<feOffset dy="2"/>
<feGaussianBlur stdDeviation="2"/>
<feColorMatrix type="matrix" values="0 0 0 0 0 0 0 0 0 0 0 0 0 0 0 0 0 0 0.7 0"/>
<feBlend mode="normal" in2="BackgroundImageFix" result="effect1_dropShadow"/>
<feBlend mode="normal" in="SourceGraphic" in2="effect1_dropShadow" result="shape"/>
</filter>
<filter id="filter1_d" x="1" y="53" width="34" height="37" filterUnits="userSpaceOnUse" color-interpolation-filters="sRGB">
<feFlood flood-opacity="0" result="BackgroundImageFix"/>
<feColorMatrix in="SourceAlpha" type="matrix" values="0 0 0 0 0 0 0 0 0 0 0 0 0 0 0 0 0 0 127 0"/>
<feOffset dy="2"/>
<feGaussianBlur stdDeviation="2"/>
<feColorMatrix type="matrix" values="0 0 0 0 0 0 0 0 0 0 0 0 0 0 0 0 0 0 0.7 0"/>
<feBlend mode="normal" in2="BackgroundImageFix" result="effect1_dropShadow"/>
<feBlend mode="normal" in="SourceGraphic" in2="effect1_dropShadow" result="shape"/>
</filter>
<filter id="filter2_d" x="0" y="105" width="36" height="36" filterUnits="userSpaceOnUse" color-interpolation-filters="sRGB">
<feFlood flood-opacity="0" result="BackgroundImageFix"/>
<feColorMatrix in="SourceAlpha" type="matrix" values="0 0 0 0 0 0 0 0 0 0 0 0 0 0 0 0 0 0 127 0"/>
<feOffset dy="2"/>
<feGaussianBlur stdDeviation="2"/>
<feColorMatrix type="matrix" values="0 0 0 0 0 0 0 0 0 0 0 0 0 0 0 0 0 0 0.7 0"/>
<feBlend mode="normal" in2="BackgroundImageFix" result="effect1_dropShadow"/>
<feBlend mode="normal" in="SourceGraphic" in2="effect1_dropShadow" result="shape"/>
</filter>
</defs>
</svg>
